SplineFontDB: 3.0
FontName: Luna
FullName: Luna
FamilyName: Luna
Weight: Medium
Copyright: Created by Eli Dupree,,, with FontForge 2.0 (http://fontforge.sf.net)
UComments: "2012-6-13: Created." 
Version: 001.000
ItalicAngle: 0
UnderlinePosition: -100
UnderlineWidth: 50
Ascent: 800
Descent: 200
LayerCount: 2
Layer: 0 0 "Back"  1
Layer: 1 0 "Fore"  0
XUID: [1021 911 31376480 4359594]
FSType: 0
OS2Version: 0
OS2_WeightWidthSlopeOnly: 0
OS2_UseTypoMetrics: 1
CreationTime: 1339628978
ModificationTime: 1339649183
OS2TypoAscent: 0
OS2TypoAOffset: 1
OS2TypoDescent: 0
OS2TypoDOffset: 1
OS2TypoLinegap: 90
OS2WinAscent: 0
OS2WinAOffset: 1
OS2WinDescent: 0
OS2WinDOffset: 1
HheadAscent: 0
HheadAOffset: 1
HheadDescent: 0
HheadDOffset: 1
Lookup: 258 0 0 "normal kerning"  {"normal kerning-1" [30,3,2] } []
MarkAttachClasses: 1
DEI: 91125
LangName: 1033 
Encoding: ISO8859-1
UnicodeInterp: none
NameList: Adobe Glyph List
DisplaySize: -24
AntiAlias: 1
FitToEm: 1
WidthSeparation: 30
WinInfo: 0 28 14
BeginPrivate: 0
EndPrivate
TeXData: 1 0 0 346030 173015 115343 405799 1048576 115343 783286 444596 497025 792723 393216 433062 380633 303038 157286 324010 404750 52429 2506097 1059062 262144
BeginChars: 256 31

StartChar: d
Encoding: 100 100 0
Width: 432
VWidth: 0
Flags: HW
HStem: 0 108<145.678 242.355> 288.062 109.938<142.414 250.471>
VStem: 12.9652 103.035<137.821 263.932> 271.16 146.84<137.196 685.64>
LayerCount: 2
Fore
SplineSet
343 747 m 0
 343 747 344 747 345 747 c 0
 418 747 418 544 418 399 c 0
 418 254 418 0 346 0 c 0
 274 0 309 24 278 24 c 0
 247 24 249 0 181 0 c 0
 114 0 80 32 49 73 c 0
 29 98 13 161 13 220 c 0
 13 257 19 293 35 318 c 0
 77 383 152 398 207 398 c 0
 262 398 268 440 268 506 c 0
 268 604 271 747 343 747 c 0
201 288 m 0
 199 288 197 288 196 288 c 0
 140 288 116 246 116 195 c 0
 116 144 159 108 194 108 c 0
 228 108 271 144 271 195 c 0
 271 245 252 288 201 288 c 0
EndSplineSet
Validated: 1
EndChar

StartChar: r
Encoding: 114 114 1
Width: 408
VWidth: 0
Flags: HW
HStem: 261 143.965<183.077 336.25>
VStem: 13.91 154.778<35.5546 244.658>
LayerCount: 2
Fore
SplineSet
94 0 m 0
 19 0 14 97 14 178 c 0
 14 189 14 200 14 210 c 0
 14 216 l 0
 14 300 15 421 96 421 c 0
 165 421 141 385 170 385 c 0
 176 385 185 387 198 391 c 0
 226 400 256 405 285 405 c 0
 330 405 371 392 389 359 c 0
 392 353 394 347 394 342 c 0
 394 297 303 261 252 261 c 0
 196 261 168 238 168 198 c 0
 168 189 169 174 169 155 c 0
 169 94 161 0 94 0 c 0
EndSplineSet
Validated: 1
EndChar

StartChar: a
Encoding: 97 97 2
Width: 424
VWidth: 0
Flags: HW
HStem: 0 110.162<-356.839 -281.387> 284 123.224<-358.368 -282.265>
VStem: -483 106<128.048 268.114>
LayerCount: 2
Fore
SplineSet
66 363 m 0
 92 390 138 407 185 407 c 0
 197 407 209 406 221 404 c 0
 281 392 316 303 343 208 c 1
 359 138 373 115 395 94 c 0
 404 86 410 69 410 52 c 0
 410 27 396 0 355 0 c 0
 287 0 314 24 282 24 c 0
 250 24 278 0 166 0 c 0
 55 0 13 77 13 165 c 0
 13 253 33 329 66 363 c 0
175 284 m 0
 135 284 119 236 119 207 c 0
 119 178 126 141 143 125 c 0
 153 116 168 110 182 110 c 0
 193 110 203 114 211 122 c 0
 226 137 232 168 232 192 c 0
 232 198 232 204 231 209 c 0
 226 232 219 284 177 284 c 0
 176 284 176 284 175 284 c 0
EndSplineSet
Validated: 1
EndChar

StartChar: c
Encoding: 99 99 3
Width: 326
VWidth: 0
Flags: HW
HStem: 0.0605196 119.204<139.931 261.591> 282.584 120.049<139.614 272.764>
VStem: 12.8482 108.152<138.868 263.834>
LayerCount: 2
Fore
SplineSet
75 40 m 0
 34 80 13 144 13 208 c 0
 13 263 29 318 63 355 c 0
 96 390 140 403 181 403 c 0
 233 403 279 384 296 366 c 0
 307 355 312 338 312 321 c 0
 312 292 297 263 270 263 c 0
 268 263 265 263 262 264 c 0
 223 271 220 283 200 283 c 0
 194 283 187 282 177 279 c 0
 133 268 121 248 121 201 c 0
 121 155 133 135 175 122 c 0
 181 120 187 119 192 119 c 0
 217 119 226 140 255 140 c 0
 258 140 263 140 267 139 c 0
 297 134 311 111 311 86 c 0
 311 72 307 58 300 46 c 0
 288 25 236 0 180 0 c 0
 143 0 105 11 75 40 c 0
EndSplineSet
Validated: 1
EndChar

StartChar: o
Encoding: 111 111 4
Width: 365
VWidth: 0
Flags: HW
HStem: -0 111<135.868 226.835> 293 119<136.266 228.021>
VStem: 13 100<138.352 270.026> 250 101<135.677 270.742>
LayerCount: 2
Fore
SplineSet
180 412 m 0
 213 412 248 402 281 380 c 0
 330 347 351 274 351 204 c 0
 351 145 335 88 308 59 c 0
 271 21 223 0 175 0 c 0
 145 0 115 8 88 26 c 0
 41 57 13 138 13 214 c 0
 13 253 21 291 36 320 c 0
 65 377 120 412 180 412 c 0
181 293 m 0
 134 293 113 244 113 199 c 0
 113 176 118 153 129 140 c 0
 145 120 163 111 180 111 c 0
 198 111 216 120 231 136 c 0
 243 147 250 172 250 199 c 0
 250 244 231 293 184 293 c 0
 183 293 182 293 181 293 c 0
EndSplineSet
Validated: 1
EndChar

StartChar: comma
Encoding: 44 44 5
Width: 180
VWidth: 0
Flags: HW
HStem: -87.8673 176.867<77.9516 122.684>
VStem: 11.5869 153.413<-44.5775 -8.87539>
LayerCount: 2
Fore
SplineSet
17 -70 m 0
 13 -62 12 -56 12 -49 c 0
 12 -28 32 -13 54 19 c 0
 83 61 71 89 117 89 c 0
 163 89 165 69 165 34 c 0
 165 -2 157 -31 134 -57 c 0
 119 -73 83 -88 54 -88 c 0
 38 -88 23 -83 17 -70 c 0
EndSplineSet
Validated: 1
EndChar

StartChar: b
Encoding: 98 98 6
Width: 432
VWidth: 0
Flags: HW
LayerCount: 2
Fore
SplineSet
89 747 m 0
 155 747 163 625 163 529 c 0
 163 521 163 514 163 506 c 0
 163 440 170 401 225 398 c 0
 280 395 355 383 396 318 c 0
 412 293 418 257 418 220 c 0
 418 161 402 98 383 73 c 0
 352 32 318 0 250 0 c 0
 182 0 184 24 153 24 c 0
 122 24 158 0 86 0 c 0
 14 0 17 254 14 399 c 0
 14 421 13 444 13 467 c 0
 13 600 24 745 87 747 c 0
 88 747 88 747 89 747 c 0
231 288 m 0
 179 288 161 245 161 195 c 0
 161 145 201 108 235 108 c 0
 236 108 237 108 238 108 c 0
 273 110 316 144 316 195 c 0
 316 246 291 285 236 288 c 0
 234 288 233 288 231 288 c 0
EndSplineSet
Validated: 1
EndChar

StartChar: e
Encoding: 101 101 7
Width: 347
VWidth: 0
Flags: HW
LayerCount: 2
Fore
SplineSet
190 416 m 0
 218 416 230 412 262 401 c 0
 294 390 333 320 333 266 c 0
 333 212 277 163 204 161 c 0
 175 160 163 152 163 143 c 0
 163 129 192 111 239 110 c 0
 292 109 315 88 315 65 c 0
 315 54 310 43 301 34 c 0
 272 4 250 0 203 0 c 0
 156 0 126 7 68 61 c 0
 34 93 13 159 13 221 c 0
 13 264 23 306 46 333 c 0
 102 399 162 416 190 416 c 0
187 316 m 0
 167 316 147 301 138 279 c 0
 136 275 135 271 135 268 c 0
 135 256 150 256 176 256 c 0
 208 256 231 266 231 287 c 0
 231 308 207 316 187 316 c 0
EndSplineSet
Validated: 1
EndChar

StartChar: f
Encoding: 102 102 8
Width: 506
VWidth: 0
Flags: HW
LayerCount: 2
Fore
SplineSet
349 750 m 0
 350 750 l 0
 412 750 470 722 485 683 c 0
 490 670 492 658 492 648 c 0
 492 615 468 599 430 599 c 0
 415 599 397 602 379 607 c 0
 374 608 368 609 362 609 c 0
 325 609 278 581 278 491 c 0
 278 487 278 483 278 479 c 0
 280 440 285 422 330 416 c 0
 402 407 434 396 434 348 c 0
 434 309 400 278 328 275 c 0
 297 274 286 270 286 234 c 0
 285 104 287 0 233 0 c 0
 175 0 151 51 151 134 c 0
 151 162 154 194 159 229 c 0
 159 232 159 234 159 237 c 0
 159 256 150 270 134 271 c 0
 68 274 13 285 13 344 c 0
 13 347 14 349 14 352 c 0
 16 383 37 403 117 414 c 0
 147 418 156 427 159 462 c 0
 167 578 168 613 207 682 c 0
 236 734 297 750 349 750 c 0
EndSplineSet
Validated: 1
EndChar

StartChar: h
Encoding: 104 104 9
Width: 434
VWidth: 0
Flags: HW
LayerCount: 2
Fore
SplineSet
100 0 m 0
 4 1 20 203 15 379 c 0
 14 414 13 451 13 489 c 0
 13 641 27 795 98 797 c 0
 99 797 100 797 101 797 c 0
 186 797 180 688 184 614 c 0
 188 539 194 469 221 443 c 0
 248 417 249 420 297 413 c 0
 345 406 419 363 420 186 c 0
 420 181 420 176 420 171 c 0
 420 8 403 0 340 0 c 0
 275 0 282 68 278 149 c 0
 274 230 267 268 224 270 c 0
 222 270 219 270 217 270 c 0
 181 270 184 252 179 163 c 0
 178 147 178 132 178 117 c 0
 178 110 l 0
 178 45 177 0 102 0 c 0
 101 0 101 0 100 0 c 0
EndSplineSet
Validated: 1
EndChar

StartChar: i
Encoding: 105 105 10
Width: 157
VWidth: 0
Flags: HW
LayerCount: 2
Fore
SplineSet
28 29 m 0
 18 47 13 109 13 177 c 0
 13 255 20 340 32 375 c 0
 46 414 66 435 85 435 c 0
 98 435 111 426 121 406 c 0
 135 380 142 285 142 196 c 0
 142 116 136 41 123 25 c 0
 109 8 91 0 74 0 c 0
 56 0 39 9 28 29 c 0
37 514 m 0
 34 521 33 529 33 536 c 0
 33 572 65 606 96 606 c 0
 103 606 110 604 117 600 c 0
 133 590 142 568 142 546 c 0
 142 531 138 517 129 506 c 0
 117 491 97 480 79 480 c 0
 62 480 47 489 37 514 c 0
EndSplineSet
Validated: 1
EndChar

StartChar: j
Encoding: 106 106 11
Width: 300
VWidth: 0
Flags: HW
LayerCount: 2
Fore
SplineSet
147 198 m 0
 147 223 149 248 153 273 c 0
 160 314 179 331 198 331 c 0
 226 331 257 297 264 252 c 0
 272 201 286 115 286 34 c 0
 286 -7 282 -47 273 -80 c 0
 253 -150 188 -200 124 -200 c 0
 97 -200 70 -191 47 -171 c 0
 22 -149 13 -128 13 -110 c 0
 13 -80 40 -60 67 -60 c 0
 74 -60 81 -61 87 -64 c 0
 100 -70 111 -73 121 -73 c 0
 147 -73 163 -52 163 -3 c 0
 163 52 147 122 147 198 c 0
153 424 m 0
 150 431 149 439 149 446 c 0
 149 482 181 516 212 516 c 0
 219 516 226 514 233 510 c 0
 249 500 259 477 259 455 c 0
 259 441 255 427 246 416 c 0
 234 401 215 390 196 390 c 0
 179 390 163 399 153 424 c 0
EndSplineSet
Validated: 1
EndChar

StartChar: k
Encoding: 107 107 12
Width: 417
VWidth: 0
Flags: HW
LayerCount: 2
Fore
SplineSet
94 748 m 0
 165 747 179 675 179 590 c 0
 179 575 179 558 178 542 c 0
 176 494 174 463 174 439 c 0
 174 412 177 395 188 379 c 0
 190 376 194 374 199 374 c 0
 226 374 287 422 338 422 c 0
 355 422 372 417 385 402 c 0
 398 387 403 372 403 358 c 0
 403 309 339 266 299 245 c 0
 273 231 260 220 260 209 c 0
 260 199 271 189 293 176 c 0
 331 154 391 133 391 77 c 0
 391 67 389 55 384 42 c 0
 373 12 353 1 328 1 c 0
 285 1 230 36 197 65 c 0
 188 73 181 76 176 76 c 0
 154 76 168 3 95 0 c 0
 94 0 94 0 93 0 c 0
 20 0 13 186 13 333 c 0
 13 362 13 390 13 414 c 0
 14 561 11 748 94 748 c 0
EndSplineSet
Validated: 1
EndChar

StartChar: l
Encoding: 108 108 13
Width: 204
VWidth: 0
Flags: HW
LayerCount: 2
Fore
SplineSet
93 707 m 0
 94 707 l 0
 201 707 184 476 188 382 c 0
 189 363 190 338 190 308 c 0
 190 186 176 0 92 0 c 0
 40 0 13 178 13 356 c 0
 13 532 40 707 93 707 c 0
EndSplineSet
Validated: 1
EndChar

StartChar: m
Encoding: 109 109 14
Width: 618
VWidth: 0
Flags: HW
LayerCount: 2
Fore
SplineSet
313 0 m 0
 312 0 310 0 309 0 c 0
 260 0 254 65 254 150 c 0
 254 240 225 275 191 275 c 0
 158 275 139 241 138 141 c 0
 137 41 136 2 73 -1 c 0
 72 -1 71 -1 70 -1 c 0
 17 -1 14 72 14 173 c 0
 14 188 14 204 14 220 c 0
 14 345 29 390 35 403 c 0
 41 416 48 426 76 426 c 0
 77 426 78 425 79 425 c 0
 102 424 114 415 134 415 c 0
 140 415 148 416 157 419 c 0
 168 422 181 424 196 424 c 0
 229 424 265 416 274 407 c 0
 287 394 295 380 314 377 c 0
 316 377 318 377 319 377 c 0
 334 377 336 390 369 409 c 0
 385 418 417 423 451 423 c 0
 496 423 544 413 564 391 c 0
 600 352 602 285 603 185 c 0
 603 169 604 154 604 139 c 0
 604 61 598 0 553 0 c 0
 552 0 551 0 550 0 c 0
 494 3 483 59 483 150 c 0
 483 241 465 282 435 282 c 0
 405 282 379 249 379 151 c 0
 379 53 366 3 313 0 c 0
EndSplineSet
Validated: 1
EndChar

StartChar: n
Encoding: 110 110 15
Width: 393
VWidth: 0
Flags: HW
LayerCount: 2
Fore
SplineSet
313 0 m 0
 312 0 310 0 309 0 c 0
 260 0 254 65 254 150 c 0
 254 240 225 275 191 275 c 0
 158 275 139 241 138 141 c 0
 137 41 136 2 73 -1 c 0
 72 -1 71 -1 70 -1 c 0
 17 -1 14 72 14 173 c 0
 14 188 14 204 14 220 c 0
 14 345 29 390 35 403 c 0
 41 416 48 426 76 426 c 0
 77 426 78 425 79 425 c 0
 103 424 115 416 136 416 c 0
 142 416 149 417 157 419 c 0
 177 423 195 425 211 425 c 0
 351 425 379 283 379 151 c 0
 379 63 365 3 313 0 c 0
EndSplineSet
Validated: 1
EndChar

StartChar: p
Encoding: 112 112 16
Width: 437
VWidth: 0
Flags: HW
LayerCount: 2
Fore
SplineSet
265 378 m 0
 317 377 366 344 389 314 c 0
 406 292 423 241 423 190 c 0
 423 171 420 152 414 134 c 0
 393 69 367 31 301 6 c 0
 284 -1 265 -1 248 -1 c 0
 239 -1 230 -1 222 -1 c 0
 184 -1 154 -7 152 -74 c 0
 149 -185 133 -199 75 -201 c 0
 73 -201 l 0
 17 -201 23 -113 15 37 c 0
 14 61 13 82 13 101 c 0
 13 205 29 254 30 303 c 0
 31 360 59 368 101 368 c 0
 102 368 103 368 104 368 c 0
 143 368 143 353 163 353 c 0
 165 353 168 354 171 354 c 0
 199 358 212 379 261 379 c 0
 262 379 264 378 265 378 c 0
228 254 m 0
 183 254 156 222 156 174 c 0
 156 128 190 107 222 107 c 0
 223 107 225 107 226 107 c 0
 260 109 296 127 296 185 c 0
 296 240 273 254 228 254 c 0
EndSplineSet
Validated: 1
EndChar

StartChar: q
Encoding: 113 113 17
Width: 509
VWidth: 0
Flags: HW
LayerCount: 2
Fore
SplineSet
171 379 m 0
 172 379 173 379 174 379 c 0
 223 379 236 358 264 354 c 0
 267 354 271 354 273 354 c 0
 293 354 292 368 331 368 c 0
 332 368 334 368 335 368 c 0
 377 368 405 360 406 303 c 0
 406 300 406 298 406 295 c 0
 406 235 391 135 386 42 c 0
 386 35 386 27 386 21 c 0
 386 -56 414 -58 462 -65 c 0
 484 -68 495 -86 495 -108 c 0
 495 -129 486 -154 465 -175 c 0
 448 -192 412 -203 375 -203 c 0
 318 -203 256 -175 256 -95 c 0
 256 37 201 -18 135 7 c 0
 69 32 42 70 21 135 c 0
 15 153 13 172 13 191 c 0
 13 242 30 293 47 315 c 0
 70 345 119 378 171 379 c 0
207 255 m 0
 162 255 140 241 140 186 c 0
 140 128 175 110 209 108 c 0
 210 108 213 108 214 108 c 0
 246 108 280 128 280 174 c 0
 280 222 253 255 208 255 c 0
 207 255 l 0
EndSplineSet
Validated: 1
EndChar

StartChar: s
Encoding: 115 115 18
Width: 331
VWidth: 0
Flags: HW
LayerCount: 2
Fore
SplineSet
138 0 m 0
 85 4 13 32 13 79 c 0
 13 84 14 90 16 96 c 0
 24 118 40 125 59 125 c 0
 89 125 127 107 150 103 c 0
 152 103 154 102 156 102 c 0
 172 102 181 113 181 127 c 0
 181 141 172 157 152 167 c 0
 113 186 42 249 42 311 c 0
 42 317 42 324 44 330 c 0
 61 397 107 414 179 418 c 0
 182 418 186 419 189 419 c 0
 249 419 317 391 317 349 c 0
 317 342 316 335 312 327 c 0
 305 314 293 309 279 309 c 0
 248 309 205 331 178 331 c 0
 165 331 155 325 153 309 c 0
 153 307 153 305 153 303 c 0
 153 246 250 251 278 199 c 0
 289 178 294 155 294 132 c 0
 294 96 282 63 263 43 c 0
 236 15 205 -1 157 -1 c 0
 151 -1 144 0 138 0 c 0
EndSplineSet
Validated: 1
EndChar

StartChar: t
Encoding: 116 116 19
Width: 351
VWidth: 0
Flags: HW
LayerCount: 2
Fore
SplineSet
147 44 m 0
 123 96 122 147 122 198 c 0
 122 249 114 287 90 290 c 0
 66 293 56 291 35 306 c 0
 21 316 13 328 13 344 c 0
 13 352 15 361 20 371 c 0
 34 402 57 401 87 407 c 0
 117 413 126 425 137 463 c 0
 148 501 158 517 190 517 c 0
 222 517 228 504 232 464 c 0
 236 424 247 413 277 413 c 0
 305 413 337 386 337 353 c 0
 337 351 336 348 336 346 c 0
 331 310 302 308 280 303 c 0
 258 298 244 299 231 283 c 0
 223 274 221 251 221 230 c 0
 221 215 222 200 223 192 c 0
 226 173 235 140 269 115 c 0
 289 100 301 82 301 63 c 0
 301 49 295 35 282 21 c 0
 269 7 247 0 224 0 c 0
 193 0 161 14 147 44 c 0
EndSplineSet
Validated: 1
EndChar

StartChar: period
Encoding: 46 46 20
Width: 153
VWidth: 0
Flags: HW
LayerCount: 2
Fore
SplineSet
25 22 m 0
 17 31 13 42 13 54 c 0
 13 90 46 134 78 134 c 0
 80 134 l 0
 123 133 138 109 140 80 c 0
 140 77 140 74 140 72 c 0
 140 47 130 32 109 17 c 0
 97 8 83 0 68 0 c 0
 55 0 41 6 25 22 c 0
EndSplineSet
Validated: 1
EndChar

StartChar: u
Encoding: 117 117 21
Width: 393
VWidth: 0
Flags: HW
LayerCount: 2
Fore
SplineSet
79 425 m 0
 80 425 82 426 83 426 c 0
 132 426 138 361 138 276 c 0
 138 186 167 150 201 150 c 0
 234 150 253 185 254 285 c 0
 255 385 256 423 319 426 c 0
 320 426 321 426 322 426 c 0
 375 426 378 353 378 252 c 0
 378 237 378 222 378 206 c 0
 378 81 364 35 358 22 c 0
 352 9 344 0 316 0 c 0
 315 0 314 0 313 0 c 0
 289 1 277 9 256 9 c 0
 250 9 244 9 236 7 c 0
 216 3 197 1 181 1 c 0
 41 1 13 143 13 275 c 0
 13 363 27 422 79 425 c 0
EndSplineSet
Validated: 1
EndChar

StartChar: v
Encoding: 118 118 22
Width: 374
VWidth: 0
Flags: HW
LayerCount: 2
Fore
SplineSet
114 30 m 0
 74 72 43 146 22 246 c 0
 16 277 13 307 13 334 c 0
 13 393 29 436 67 436 c 0
 122 436 126 325 134 282 c 0
 141 240 171 155 177 155 c 0
 183 155 207 192 232 273 c 0
 258 355 250 430 317 431 c 0
 318 431 l 0
 350 431 360 411 360 380 c 0
 360 347 348 300 337 247 c 0
 315 143 281 84 242 37 c 0
 221 13 198 0 175 0 c 0
 154 0 133 10 114 30 c 0
EndSplineSet
Validated: 1
EndChar

StartChar: w
Encoding: 119 119 23
Width: 618
VWidth: 0
Flags: HW
LayerCount: 2
Fore
SplineSet
304 425 m 0
 305 425 306 426 307 426 c 0
 356 426 362 361 362 276 c 0
 362 186 392 150 426 150 c 0
 459 150 477 185 478 285 c 0
 479 385 481 423 544 426 c 0
 545 426 545 426 546 426 c 0
 599 426 603 353 603 252 c 0
 603 237 603 222 603 206 c 0
 603 81 588 35 582 22 c 0
 576 9 568 0 540 0 c 0
 539 0 538 0 537 0 c 0
 514 1 502 10 482 10 c 0
 476 10 469 10 460 7 c 0
 449 4 435 2 420 2 c 0
 387 2 352 10 343 19 c 0
 330 32 321 46 302 49 c 0
 301 49 300 49 299 49 c 0
 282 49 268 32 234 13 c 0
 219 5 193 0 164 0 c 0
 122 0 74 10 53 34 c 0
 17 73 15 140 14 240 c 0
 14 256 13 272 13 287 c 0
 13 365 19 426 64 426 c 0
 65 426 66 426 67 426 c 0
 123 423 134 367 134 276 c 0
 134 185 151 143 181 143 c 0
 211 143 238 177 238 275 c 0
 238 373 251 422 304 425 c 0
EndSplineSet
Validated: 1
EndChar

StartChar: x
Encoding: 120 120 24
Width: 415
VWidth: 0
Flags: HW
LayerCount: 2
Fore
SplineSet
62 415 m 0
 63 415 l 0
 86 415 97 411 114 403 c 0
 132 395 176 347 190 336 c 0
 197 330 202 328 207 328 c 0
 212 328 216 330 223 336 c 0
 237 347 270 388 300 403 c 0
 309 407 323 410 337 410 c 0
 367 410 401 399 401 369 c 0
 401 366 401 363 400 360 c 0
 390 308 336 254 320 232 c 0
 312 221 309 218 309 214 c 0
 309 210 313 208 320 198 c 0
 334 179 385 134 397 87 c 0
 399 81 399 74 399 68 c 0
 399 31 370 0 337 0 c 0
 335 0 334 0 332 0 c 0
 292 4 240 69 220 88 c 0
 210 97 208 102 207 102 c 0
 206 102 204 97 194 88 c 0
 174 69 122 4 82 0 c 0
 80 0 79 0 77 0 c 0
 44 0 14 31 14 68 c 0
 14 74 15 81 17 87 c 0
 29 134 80 179 94 198 c 0
 101 208 105 211 105 214 c 0
 105 217 102 221 94 232 c 0
 78 254 21 320 14 360 c 0
 13 364 13 368 13 372 c 0
 13 403 41 415 62 415 c 0
EndSplineSet
Validated: 1
EndChar

StartChar: y
Encoding: 121 121 25
Width: 410
VWidth: 0
Flags: HW
LayerCount: 2
Fore
SplineSet
16 239 m 0
 14 261 13 281 13 299 c 0
 13 351 27 383 87 385 c 0
 88 385 88 385 89 385 c 0
 168 385 124 241 168 169 c 0
 181 148 196 138 209 138 c 0
 238 138 263 186 263 260 c 0
 263 265 262 271 262 276 c 0
 262 278 262 281 262 283 c 0
 262 348 306 387 343 387 c 0
 371 387 395 365 396 315 c 0
 396 311 396 307 396 303 c 0
 396 187 373 69 320 -45 c 0
 265 -163 209 -199 162 -200 c 0
 161 -200 160 -200 159 -200 c 0
 114 -200 87 -178 74 -152 c 0
 72 -147 71 -142 71 -138 c 0
 71 -117 94 -100 117 -84 c 0
 145 -64 163 -49 170 -22 c 0
 170 -21 171 -19 171 -18 c 0
 171 5 110 4 72 55 c 0
 32 109 24 151 16 239 c 0
EndSplineSet
Validated: 1
EndChar

StartChar: z
Encoding: 122 122 26
Width: 434
VWidth: 0
Flags: HW
LayerCount: 2
Fore
SplineSet
207 264 m 0
 210 270 211 275 211 279 c 0
 211 300 181 304 144 304 c 0
 124 304 100 303 80 303 c 0
 44 303 15 306 15 326 c 0
 15 382 47 419 218 419 c 0
 229 419 238 419 248 419 c 0
 390 419 420 414 420 358 c 0
 420 291 318 241 254 160 c 0
 246 150 243 144 243 139 c 0
 243 129 254 127 272 127 c 0
 292 127 320 130 346 130 c 0
 384 130 419 123 420 88 c 0
 420 85 420 81 420 78 c 0
 420 3 379 0 257 -0 c 0
 245 0 232 0 219 0 c 0
 192 0 168 0 147 0 c 0
 48 0 13 5 13 66 c 0
 13 138 170 186 207 264 c 0
EndSplineSet
Validated: 1
EndChar

StartChar: g
Encoding: 103 103 27
Width: 436
VWidth: 0
Flags: HW
LayerCount: 2
Fore
SplineSet
173 387 m 0
 174 387 175 387 176 387 c 0
 225 387 243 363 272 359 c 0
 275 359 277 359 280 359 c 0
 305 359 327 376 351 379 c 0
 354 379 355 379 358 379 c 0
 383 379 407 364 408 311 c 0
 409 260 424 171 424 83 c 0
 424 70 424 58 423 45 c 0
 418 -55 397 -83 349 -133 c 0
 301 -183 250 -199 157 -200 c 0
 156 -200 156 -200 155 -200 c 0
 85 -200 50 -167 50 -132 c 0
 50 -121 53 -110 60 -100 c 0
 76 -77 95 -76 119 -76 c 0
 122 -76 125 -76 128 -76 c 0
 148 -76 170 -75 197 -64 c 0
 234 -48 255 -29 255 -16 c 0
 255 -6 243 0 216 0 c 0
 210 0 204 0 198 0 c 0
 145 0 110 1 64 38 c 0
 33 63 12 137 12 203 c 0
 12 243 20 280 37 303 c 0
 83 363 121 386 173 387 c 0
205 259 m 0
 160 259 135 235 130 183 c 0
 130 180 130 178 130 175 c 0
 130 129 170 108 201 106 c 0
 202 106 204 106 205 106 c 0
 237 106 270 131 270 178 c 0
 270 226 251 259 206 259 c 0
 205 259 l 0
EndSplineSet
Validated: 1
EndChar

StartChar: exclam
Encoding: 33 33 28
Width: 186
VWidth: 0
Flags: HW
LayerCount: 2
Fore
SplineSet
26 22 m 0
 18 31 14 42 14 54 c 0
 14 90 48 134 80 134 c 0
 81 134 l 0
 124 133 139 109 141 80 c 0
 141 77 141 74 141 72 c 0
 141 47 131 32 110 17 c 0
 98 8 85 0 70 0 c 0
 57 0 42 6 26 22 c 0
55 209 m 0
 22 255 15 337 13 413 c 0
 13 424 13 436 13 448 c 0
 13 522 17 618 27 665 c 0
 38 713 73 771 109 771 c 0
 114 771 119 771 124 768 c 0
 166 748 165 729 170 635 c 0
 172 604 173 567 173 528 c 0
 173 449 168 361 150 288 c 0
 132 216 110 185 88 185 c 0
 77 185 66 193 55 209 c 0
EndSplineSet
Validated: 1
EndChar

StartChar: question
Encoding: 63 63 29
Width: 447
VWidth: 0
Flags: HW
LayerCount: 2
Fore
SplineSet
187 749 m 0
 235 749 287 737 335 708 c 0
 408 664 434 601 434 541 c 0
 434 483 411 427 383 391 c 0
 326 317 297 327 265 247 c 0
 249 208 223 194 200 194 c 0
 176 194 155 208 151 226 c 0
 149 237 146 253 146 272 c 0
 146 316 159 374 215 414 c 0
 258 444 278 478 278 509 c 0
 278 537 262 562 231 582 c 0
 217 591 198 594 177 594 c 0
 142 594 101 585 69 585 c 0
 36 585 12 594 12 631 c 0
 12 701 92 749 187 749 c 0
150 22 m 0
 142 31 138 41 138 53 c 0
 138 89 171 134 203 134 c 0
 205 134 l 0
 248 133 263 109 265 80 c 0
 265 77 265 74 265 72 c 0
 265 47 255 31 234 16 c 0
 222 7 208 0 193 0 c 0
 180 0 166 6 150 22 c 0
EndSplineSet
Validated: 1
EndChar

StartChar: quotesingle
Encoding: 39 39 30
Width: 95
VWidth: 0
Flags: HWO
LayerCount: 2
Fore
SplineSet
49 432 m 0
 11 442 19 470 5 518 c 0
 -4 551 -20 566 -20 583 c 0
 -20 591 -16 600 -7 611 c 0
 6 627 15 632 25 632 c 0
 37 632 50 623 66 612 c 0
 95 592 111 564 115 530 c 0
 115 528 115 525 115 523 c 0
 115 489 87 431 55 431 c 0
 53 431 51 431 49 432 c 0
EndSplineSet
EndChar
